<svg width="64" height="62" viewBox="0 0 64 62" fill="none" xmlns="http://www.w3.org/2000/svg">
<path d="M32 12C25.1613 12 19.6129 17.375 19.6129 24C19.6129 30.625 25.1613 36 32 36C38.8387 36 44.3871 30.625 44.3871 24C44.3871 17.375 38.8387 12 32 12ZM32 30C28.5806 30 25.8064 27.3125 25.8064 24C25.8064 20.6875 28.5806 18 32 18C35.4194 18 38.1935 20.6875 38.1935 24C38.1935 27.3125 35.4194 30 32 30ZM32 0C14.3226 0 0 13.875 0 31C0 48.125 14.3226 62 32 62C49.6774 62 64 48.125 64 31C64 13.875 49.6774 0 32 0ZM32 56C25.5871 56 19.729 53.7125 15.2129 49.95C17.1355 47.075 20.4258 45.125 24.1935 45.0125C26.8774 45.8125 29.4323 46.2125 32 46.2125C34.5677 46.2125 37.1226 45.825 39.8064 45.0125C43.5742 45.1375 46.8645 47.075 48.7871 49.95C44.271 53.7125 38.4129 56 32 56ZM52.9935 45.4875C49.8452 41.5625 44.9806 39 39.4323 39C38.1161 39 36.0774 40.2 32 40.2C27.9355 40.2 25.8839 39 24.5677 39C19.0323 39 14.1677 41.5625 11.0065 45.4875C7.9871 41.4 6.19355 36.4 6.19355 31C6.19355 17.2125 17.7677 6 32 6C46.2323 6 57.8064 17.2125 57.8064 31C57.8064 36.4 56.0129 41.4 52.9935 45.4875Z" fill="black"/>
</svg>
